<svg width="32" height="32" viewBox="0 0 38 38" fill="none" xmlns="http://www.w3.org/2000/svg">
  <g filter="url(#filter0_dd_4155_249)">
    <rect x="3.1" y="2.1" width="31.8" height="31.8" rx="7.9" fill="white"/>
    <rect x="3.1" y="2.1" width="31.8" height="31.8" rx="7.9" fill="url(#paint0_linear_4155_249)"/>
    <rect x="3.1" y="2.1" width="31.8" height="31.8" rx="7.9" stroke="#D0D5DD" stroke-width="0.2"/>
    <path d="M18.3546 13.1827C22.7105 11.4503 27.4742 12.8184 29.6373 14.9132C30.106 15.3671 30.5041 15.8275 30.845 16.2851C31.0394 15.2107 31.0552 14.1405 30.8681 13.1055C30.1847 9.32646 26.6195 7.18558 23.4233 8.29146C20.2415 9.39237 19.0005 11.5321 19.0005 11.5321C19.0005 11.5321 17.7595 9.39237 14.5777 8.29146C11.3812 7.18558 7.81603 9.32669 7.1328 13.1055C6.62842 15.8944 7.58356 18.9391 9.61033 21.6298C10.0372 21.7732 10.4847 21.8809 10.9586 21.943C13.7978 22.3163 14.8184 21.557 16.0178 21.0486C16.8142 20.7112 17.4134 21.0942 17.3843 21.3626C17.3392 21.7786 15.7693 22.4895 16.106 22.6388C17.4351 23.2284 19.0718 23.2334 20.3053 22.18C21.838 20.8712 22.4114 21.7658 22.4114 21.7658C22.4114 21.7658 21.6502 23.7076 19.3581 24.6717C17.4457 25.4761 15.4419 25.6743 13.6107 25.4683C15.19 26.5846 17.0035 27.5204 19.0005 28.1882C24.7099 26.2784 28.9276 22.1871 30.4145 17.9096C29.4072 16.9157 28.1716 16.2995 26.6988 16.0763C23.8674 15.647 22.8322 16.3862 21.6228 16.8708C20.8198 17.1926 20.2285 16.7978 20.263 16.5299C20.3161 16.1148 21.8999 15.4351 21.5661 15.279C20.249 14.6633 18.6125 14.626 17.3585 15.6548C15.8003 16.9332 15.2446 16.0274 15.2446 16.0274C15.2446 16.0274 16.0438 14.1015 18.3546 13.1827ZM17.2709 18.5051H18.3709V17.4052H19.6296V18.5051H20.7296V19.7639H19.6296V20.8638H18.3709V19.7639H17.2709V18.5051Z" fill="url(#paint1_linear_4155_249)"/>
    <path opacity="0.31" d="M27.277 9.64942C24.2712 8.13932 21.169 10.489 20.1851 11.7298C21.882 11.3724 23.3668 11.189 25.2457 11.5838C28.0252 12.1678 29.0654 13.1714 30.3064 14.6541C30.0871 11.9068 28.3519 10.1895 27.277 9.64942Z" fill="url(#paint3_linear_4155_249)"/>
  </g>
  <defs>
    <filter id="filter0_dd_4155_249" x="0" y="0" width="38" height="38" filterUnits="userSpaceOnUse" color-interpolation-filters="sRGB">
      <feFlood flood-opacity="0" result="BackgroundImageFix"/>
      <feColorMatrix in="SourceAlpha" type="matrix" values="0 0 0 0 0 0 0 0 0 0 0 0 0 0 0 0 0 0 127 0" result="hardAlpha"/>
      <feOffset dy="1"/>
      <feGaussianBlur stdDeviation="1"/>
      <feColorMatrix type="matrix" values="0 0 0 0 0.3 0 0 0 0 0.35 0 0 0 0 0.4 0 0 0 0.1 0"/>
      <feBlend mode="normal" in2="BackgroundImageFix" result="effect1_dropShadow_4155_249"/>
      <feColorMatrix in="SourceAlpha" type="matrix" values="0 0 0 0 0 0 0 0 0 0 0 0 0 0 0 0 0 0 127 0" result="hardAlpha"/>
      <feOffset dy="1"/>
      <feGaussianBlur stdDeviation="1.5"/>
      <feColorMatrix type="matrix" values="0 0 0 0 0.05 0 0 0 0 0.1 0 0 0 0 0.15 0 0 0 0.1 0"/>
      <feBlend mode="normal" in2="effect1_dropShadow_4155_249" result="effect2_dropShadow_4155_249"/>
      <feBlend mode="normal" in="SourceGraphic" in2="effect2_dropShadow_4155_249" result="shape"/>
    </filter>
    <linearGradient id="paint0_linear_4155_249" x1="18" y1="2.1" x2="18" y2="34.9" gradientUnits="userSpaceOnUse">
      <stop stop-color="white"/>
      <stop offset="1" stop-color="#F2F4F7"/>
    </linearGradient>
    <linearGradient id="paint1_linear_4155_249" x1="18.1067" y1="8.28874" x2="18.1067" y2="28.1892" gradientUnits="userSpaceOnUse">
      <stop stop-color="#7FB5E6"/>
      <stop offset="0.257292" stop-color="#7FB5E6"/>
      <stop offset="0.545833" stop-color="#7FB5E6"/>
      <stop offset="0.83375" stop-color="#7FB5E6"/>
      <stop offset="1" stop-color="#7FB5E6"/>
    </linearGradient>
    <linearGradient id="paint2_linear_4155_249" x1="18" y1="0" x2="18" y2="36" gradientUnits="userSpaceOnUse">
      <stop stop-color="#F9FAFB"/>
      <stop offset="1" stop-color="#F2F4F7"/>
    </linearGradient>
    <linearGradient id="paint3_linear_4155_249" x1="18.5" y1="8.10563" x2="18.5" y2="27.2777" gradientUnits="userSpaceOnUse">
      <stop stop-color="#D0D5DD"/>
      <stop offset="1" stop-color="#D0D5DD" stop-opacity="0"/>
    </linearGradient>
  </defs>
</svg>
